PathFileType	4	(X/Y/Z)	C:/Users/opensim2020/Desktop/walking_exp_matlab/subject03_walking14_straight_02.trc	
DataRate	CameraRate	NumFrames	NumMarkers	Units	OrigDataRate	OrigDataStartFrame	OrigNumFrames	
100.00	100.00	4	47	mm	100.00	1128	168	
Frame#	Time	LFHD			RFHD			LBHD			RBHD			C7			T10			CLAV			STRN			RBAK			LSHO			LUPA			LELB			LFRM			LWRA			LWRB			LFIN			RSHO			RUPA			RELB			RFRM			RWRA			RWRB			RFIN			LASI			RASI			LPSI			RPSI			LTHI			LKNE			LTIB			LANK			LHEE			LTOE			RTHI			RKNE			RTIB			RANK			RHEE			RTOE			*39			*40			*41			*42			*43			*44			*45			*46			
		X1	Y1	Z1	X2	Y2	Z2	X3	Y3	Z3	X4	Y4	Z4	X5	Y5	Z5	X6	Y6	Z6	X7	Y7	Z7	X8	Y8	Z8	X9	Y9	Z9	X10	Y10	Z10	X11	Y11	Z11	X12	Y12	Z12	X13	Y13	Z13	X14	Y14	Z14	X15	Y15	Z15	X16	Y16	Z16	X17	Y17	Z17	X18	Y18	Z18	X19	Y19	Z19	X20	Y20	Z20	X21	Y21	Z21	X22	Y22	Z22	X23	Y23	Z23	X24	Y24	Z24	X25	Y25	Z25	X26	Y26	Z26	X27	Y27	Z27	X28	Y28	Z28	X29	Y29	Z29	X30	Y30	Z30	X31	Y31	Z31	X32	Y32	Z32	X33	Y33	Z33	X34	Y34	Z34	X35	Y35	Z35	X36	Y36	Z36	X37	Y37	Z37	X38	Y38	Z38	X39	Y39	Z39	X40	Y40	Z40	X41	Y41	Z41	X42	Y42	Z42	X43	Y43	Z43	X44	Y44	Z44	X45	Y45	Z45	X46	Y46	Z46	X47	Y47	Z47	

85	0.840	-900.64032	77.87946	1618.80225	-1033.03027	89.70434	1625.03467	-896.10565	199.75526	1561.09900	-1026.45313	206.55676	1567.10095	-948.59216	221.37517	1405.62976	-946.28180	246.57306	1094.40747	-961.98499	94.97392	1337.84497	-954.60272	44.29200	1174.48962	-1033.66211	274.05804	1227.61426	-803.29926	125.14346	1377.58191	-723.56293	90.92012	1189.15881	-709.95789	55.83281	1071.20850	-718.00226	-3.60433	955.71002	-754.30444	-47.38789	846.61902	-699.21362	-36.52887	847.61102	-713.73285	-74.52444	773.16638	-1116.13367	161.78088	1354.33948	-1183.15186	169.94002	1130.20496	-1194.96680	154.31204	1017.79559	-1196.29749	139.05103	881.66199	-1165.89343	103.17746	787.00128	-1202.27954	142.52069	780.65283	-1197.12634	115.74444	711.57184	-834.07684	81.41026	935.40881	-1070.90881	80.95361	934.53912	-885.66193	242.37808	956.13995	-1033.48157	241.49237	955.97833	-799.44830	169.16641	634.78131	-837.27460	197.03001	459.63397	-832.46906	288.86331	281.66980	-872.96942	353.98099	79.84611	-906.87518	401.55026	51.43788	-906.86780	209.30951	29.06858	-1118.98962	59.46862	642.23187	-1083.05615	-13.75223	479.69165	-1088.05066	-10.33775	288.30923	-1044.56946	-34.53675	72.50454	-988.27014	-0.20689	34.97418	-1036.14233	-176.31267	56.69912	-942.72620	169.64095	1672.05408																					 
86	0.850	-901.40607	65.17355	1616.76477	-1033.76953	76.97123	1622.62219	-896.76807	186.89703	1558.76794	-1027.16736	193.69792	1564.40198	-949.28418	208.57512	1403.40967	-947.61920	234.20697	1092.20605	-962.11011	82.10712	1335.34985	-954.21375	31.61606	1171.98706	-1034.46643	260.89935	1225.19385	-803.67126	112.75065	1375.22913	-723.72198	76.28400	1187.93616	-710.06537	38.70573	1070.65430	-719.02612	-24.06360	957.08423	-756.31372	-71.19249	849.86670	-701.24982	-60.24133	849.89258	-716.55573	-100.90594	777.07886	-1116.62451	148.27429	1351.73645	-1183.00220	159.37157	1127.48401	-1194.23303	146.20097	1014.64404	-1195.41968	135.35475	878.05487	-1165.03418	102.96916	782.16718	-1201.53308	142.40100	777.24731	-1196.13647	118.33504	707.07758	-833.74866	70.39037	933.00104	-1070.35364	67.09840	931.92981	-887.18829	230.65674	953.91528	-1035.06567	228.06151	953.74603	-799.61572	160.94159	633.44794	-837.56104	191.30942	458.58881	-833.07141	285.62985	281.93906	-873.76917	353.54077	80.90683	-907.83240	401.30280	53.02536	-906.93689	209.28447	28.98389	-1119.00598	47.79713	638.91974	-1082.47986	-26.18314	476.94891	-1088.95703	-32.82178	287.46017	-1046.91113	-70.10902	73.01495	-991.19574	-37.48724	33.75943	-1036.44080	-213.33376	63.25023	-943.84583	157.12978	1670.00903																					 
87	0.860	-902.15369	52.43721	1614.69946	-1034.62561	64.19317	1620.21765	-897.44482	173.97749	1556.33850	-1027.80200	180.72469	1561.62231	-949.97754	195.61356	1401.06812	-949.02399	221.58388	1089.89929	-962.24158	69.10600	1332.83679	-953.85168	18.93311	1169.41553	-1035.34607	247.63774	1222.72510	-804.05487	100.45478	1372.72314	-723.89905	61.90088	1186.41626	-710.26141	21.85257	1069.91577	-720.08612	-44.09333	958.32892	-758.51868	-94.81496	853.20923	-703.39606	-83.60963	852.18988	-719.41516	-126.83466	781.16254	-1117.23694	134.37872	1348.90173	-1182.85840	148.53299	1124.70923	-1193.54749	137.82843	1011.50970	-1194.46155	131.38960	874.63800	-1164.35962	102.40473	777.78253	-1200.88892	141.72073	774.12305	-1195.12793	120.72373	702.92926	-833.44440	59.05037	930.67273	-1069.81189	53.12751	929.20966	-888.85883	218.90514	951.61060	-1036.74670	214.54170	951.30408	-799.39148	152.53008	632.19836	-837.68622	185.23961	457.64484	-833.57770	282.26837	282.29108	-874.42963	353.14417	82.30936	-908.57520	401.06693	54.89590	-907.08673	209.28033	28.96073	-1119.15454	36.83400	635.33728	-1081.99841	-38.76825	474.08774	-1089.89185	-54.51289	287.17520	-1049.33264	-103.63211	74.55920	-993.97321	-72.52757	33.76429	-1036.29590	-248.16724	70.12128	-944.90112	144.67882	1667.44226																					 
88	0.870	-902.94916	39.61917	1612.56396	-1035.40613	51.30406	1617.80054	-898.14380	161.03101	1553.86475	-1028.54639	167.71790	1558.88245	-950.76794	182.55539	1398.73193	-950.51886	208.84244	1087.62170	-962.39825	55.99868	1330.34277	-953.53271	6.09318	1166.80554	-1036.36389	234.22356	1220.16321	-804.42670	88.18433	1370.09668	-724.18707	47.73700	1184.78650	-710.54022	5.13313	1069.14404	-721.25238	-63.83163	959.60840	-760.62146	-117.40092	856.37012	-705.60706	-106.52827	854.58759	-722.30225	-152.26656	785.45441	-1117.76270	120.52567	1346.27527	-1182.70996	137.27234	1121.90833	-1192.87219	129.19043	1008.44446	-1193.58167	127.06442	871.41431	-1163.38257	101.67540	773.53436	-1200.25098	140.91679	771.21082	-1194.16052	122.67951	699.11432	-833.17010	47.48401	928.23944	-1069.32263	39.19765	926.35101	-890.56494	206.94876	949.08185	-1038.57605	200.99048	948.74451	-799.47839	144.01442	630.99060	-837.64960	178.79120	456.65860	-833.80188	278.47623	282.75278	-874.75000	352.31085	83.61634	-908.96033	400.67084	56.87600	-907.14783	209.24220	28.87085	-1119.32275	27.00626	631.34381	-1081.70593	-51.82986	471.54538	-1090.76880	-75.30252	287.25128	-1051.17004	-134.65819	76.71953	-996.31403	-104.77108	34.68896	-1035.99255	-279.79022	77.27639	-945.84003	132.02229	1664.83093																					 
